<?xml version="1.0" standalone="no"?>
<!DOCTYPE svg PUBLIC "-//W3C//DTD SVG 20010904//EN"
 "http://www.w3.org/TR/2001/REC-SVG-20010904/DTD/svg10.dtd">
<svg version="1.0" xmlns="http://www.w3.org/2000/svg"
 width="1026.000000pt" height="881.000000pt" viewBox="0 0 1026.000000 881.000000"
 preserveAspectRatio="xMidYMid meet">

<g transform="translate(0.000000,881.000000) scale(0.100000,-0.100000)"
fill="#000000" stroke="none">
<path d="M4933 8623 c-166 -183 -405 -462 -481 -562 -24 -31 -65 -102 -93
-157 -236 -478 26 -1045 547 -1185 62 -17 108 -22 209 -22 152 0 241 20 370
83 355 171 543 573 449 957 -23 97 -91 235 -161 328 -169 225 -626 735 -658
735 -15 0 -72 -56 -182 -177z"/>
<path d="M3620 7025 c-89 -18 -191 -58 -273 -106 -148 -88 -827 -678 -827
-718 0 -24 169 -184 440 -417 306 -264 426 -344 590 -396 65 -20 95 -23 230
-23 174 0 235 12 357 70 235 111 400 312 464 564 18 73 21 104 17 230 -4 122
-10 159 -31 226 -96 291 -347 514 -644 571 -91 17 -235 17 -323 -1z"/>
<path d="M6280 7025 c-361 -72 -636 -377 -669 -740 -37 -415 202 -772 599
-897 66 -20 95 -23 235 -23 140 0 169 3 235 23 110 35 233 102 335 184 287
230 695 598 695 628 0 41 -676 630 -827 719 -179 106 -405 146 -603 106z"/>
<path d="M4951 5690 c-260 -55 -496 -241 -602 -475 -117 -259 -100 -552 45
-791 53 -88 239 -314 449 -550 210 -235 261 -286 280 -278 35 13 511 552 649
735 76 100 128 203 160 316 32 112 32 314 0 426 -83 291 -291 506 -577 597
-56 18 -99 23 -215 26 -80 2 -165 -1 -189 -6z m110 -558 l54 -28 55 29 c46 24
64 28 111 25 95 -7 169 -79 177 -173 8 -92 -6 -115 -176 -287 -86 -87 -161
-158 -167 -158 -20 0 -314 304 -330 343 -31 76 -14 166 43 220 68 65 146 75
233 29z"/>
<path d="M727 2640 c-159 -40 -257 -170 -245 -325 11 -136 87 -211 288 -285
167 -62 210 -95 210 -165 0 -50 -33 -80 -104 -95 -73 -15 -204 0 -287 34 l-60
24 -8 -21 c-5 -12 -20 -54 -34 -94 l-26 -71 49 -21 c93 -40 170 -54 295 -55
136 0 226 19 289 61 99 65 131 136 124 272 -5 97 -24 145 -80 198 -35 34 -154
93 -278 139 -117 43 -163 102 -129 166 34 63 215 65 360 4 14 -6 23 9 48 79
17 47 31 90 31 94 0 5 -33 21 -72 36 -64 25 -89 28 -203 31 -71 2 -147 -1
-168 -6z"/>
<path d="M2985 2635 c-5 -2 -40 -6 -77 -10 l-68 -7 0 -519 0 -519 115 0 115 0
0 174 0 173 112 8 c188 12 300 49 369 122 48 50 65 85 79 162 22 123 -10 241
-86 311 -86 79 -207 110 -417 109 -73 0 -136 -2 -142 -4z m300 -206 c21 -6 54
-26 72 -44 30 -30 33 -39 33 -90 0 -114 -46 -147 -212 -153 l-108 -4 0 144 c0
80 3 148 7 151 10 11 165 8 208 -4z"/>
<path d="M6030 2635 c-8 -2 -41 -7 -73 -10 l-57 -6 2 -512 3 -512 40 -7 c22
-4 105 -10 185 -14 250 -11 416 34 534 146 108 102 151 229 143 425 -7 173
-43 262 -146 358 -54 50 -126 89 -214 114 -48 14 -378 28 -417 18z m387 -231
c63 -32 115 -92 133 -152 7 -20 14 -72 17 -115 10 -146 -43 -265 -143 -319
-55 -30 -164 -51 -240 -46 l-49 3 -3 320 c-1 176 0 326 3 334 4 11 28 13 115
9 96 -4 116 -8 167 -34z"/>
<path d="M1330 2530 l0 -100 155 0 155 0 0 -425 0 -426 118 3 117 3 3 423 2
422 155 0 155 0 0 100 0 100 -430 0 -430 0 0 -100z"/>
<path d="M2350 2105 l0 -525 115 0 115 0 0 525 0 525 -115 0 -115 0 0 -525z"/>
<path d="M3802 2108 l3 -523 370 0 370 0 3 98 3 97 -256 0 -255 0 0 125 0 125
210 0 210 0 0 100 0 100 -210 0 -210 0 0 100 0 100 235 0 235 0 0 100 0 100
-355 0 -355 0 2 -522z"/>
<path d="M4742 2108 l3 -523 115 0 115 0 5 338 5 337 66 -82 c116 -147 236
-325 371 -552 l28 -46 95 0 95 0 0 525 0 525 -115 0 -115 0 0 -307 0 -307 -55
79 c-100 145 -254 349 -333 440 l-78 90 -102 3 -102 3 2 -523z"/>
<path d="M7020 2105 l0 -525 115 0 115 0 0 525 0 525 -115 0 -115 0 0 -525z"/>
<path d="M7502 2243 c3 -383 3 -389 27 -448 32 -78 104 -155 179 -188 200 -90
472 -38 573 110 65 95 69 123 69 539 l0 374 -115 0 -115 0 0 -347 c-1 -398 -5
-422 -73 -477 -36 -29 -44 -31 -120 -31 -98 0 -132 19 -169 93 -23 46 -23 53
-26 405 l-4 357 -114 0 -115 0 3 -387z"/>
<path d="M8636 2583 c-16 -127 -37 -371 -51 -583 -8 -129 -17 -277 -21 -327
l-6 -93 116 0 116 0 0 43 c0 54 17 411 26 545 4 62 10 98 15 90 5 -7 59 -131
121 -276 l112 -263 84 3 85 3 117 273 c111 258 117 272 123 235 6 -35 25 -404
30 -573 l2 -75 114 -3 114 -3 -7 153 c-12 280 -55 802 -71 876 -5 21 -10 22
-114 22 l-108 0 -65 -137 c-36 -76 -98 -214 -138 -306 -40 -92 -77 -164 -81
-160 -4 4 -38 78 -74 163 -37 85 -98 219 -135 298 l-69 142 -114 0 -114 0 -7
-47z"/>
<path d="M3713 1085 c-229 -50 -376 -234 -390 -490 -10 -186 35 -332 138 -440
102 -108 241 -152 448 -142 117 6 155 12 254 38 l37 10 0 259 0 260 -115 0
-115 0 0 -180 0 -180 -26 -6 c-14 -4 -61 -4 -103 -1 -86 5 -140 27 -189 76
-116 117 -118 401 -3 524 49 53 96 71 206 75 88 4 109 1 175 -22 41 -14 79
-27 84 -28 4 -2 23 39 42 89 l34 93 -42 21 c-99 51 -307 72 -435 44z"/>
<path d="M7403 1085 c-187 -41 -333 -186 -378 -377 -18 -79 -19 -233 -1 -318
44 -204 179 -337 379 -370 108 -19 274 -8 372 24 44 14 86 30 92 34 10 6 6 30
-18 100 -17 51 -34 92 -37 92 -4 0 -32 -10 -62 -22 -46 -19 -75 -22 -180 -23
-145 0 -181 13 -244 87 -116 135 -91 429 44 527 82 59 233 67 361 18 l67 -25
31 87 c17 47 31 92 31 98 0 14 -94 50 -180 69 -81 17 -195 17 -277 -1z"/>
<path d="M5686 1080 c-49 -5 -99 -11 -112 -14 l-24 -6 0 -515 0 -515 115 0
115 0 0 190 0 191 62 -3 c62 -3 63 -3 100 -53 21 -27 75 -112 119 -187 l82
-138 128 0 c71 0 129 2 129 5 0 24 -139 264 -204 353 -25 34 -46 64 -46 67 0
2 17 13 38 24 48 25 98 75 125 125 19 35 22 57 22 141 -1 84 -5 108 -24 147
-42 87 -136 150 -261 177 -74 16 -255 21 -364 11z m315 -210 c76 -21 113 -93
90 -170 -21 -70 -90 -99 -233 -100 l-78 0 0 139 c0 137 0 140 23 145 31 7 155
-2 198 -14z"/>
<path d="M7 1073 c-4 -3 -7 -240 -7 -525 l0 -518 120 0 120 0 0 220 0 220 195
0 195 0 0 -220 0 -220 120 0 120 0 0 525 0 526 -117 -3 -118 -3 -3 -197 -2
-198 -195 0 -195 0 0 200 0 200 -113 0 c-63 0 -117 -3 -120 -7z"/>
<path d="M1117 1073 c-11 -10 -8 -651 3 -727 15 -101 53 -177 117 -236 83 -76
141 -94 298 -95 100 0 142 4 181 18 111 39 182 107 226 217 22 53 23 69 26
443 l3 388 -118 -3 -118 -3 -5 -370 c-5 -350 -6 -372 -26 -405 -38 -66 -118
-99 -202 -85 -57 9 -98 39 -124 87 -23 42 -23 49 -26 411 l-3 367 -113 0 c-62
0 -116 -3 -119 -7z"/>
<path d="M2217 1073 c-4 -3 -7 -240 -7 -525 l0 -518 120 0 120 0 2 337 3 338
78 -99 c87 -110 243 -341 327 -483 l54 -93 98 0 98 0 0 525 0 525 -115 0 -115
0 -2 -307 -3 -307 -94 134 c-117 168 -237 322 -319 411 l-64 69 -87 0 c-48 0
-91 -3 -94 -7z"/>
<path d="M4747 1053 c-75 -146 -243 -564 -363 -900 l-44 -123 123 0 123 0 37
115 38 115 204 0 203 0 26 -73 c14 -39 32 -90 40 -112 l13 -40 126 -3 127 -3
-49 138 c-102 288 -212 565 -309 778 l-59 130 -111 3 -111 3 -14 -28z m202
-430 c33 -89 61 -167 61 -173 0 -6 -52 -10 -145 -10 -84 0 -145 4 -145 9 0 6
32 94 72 196 83 217 66 220 157 -22z"/>
<path d="M6567 1073 c-4 -3 -7 -240 -7 -525 l0 -518 120 0 120 0 0 525 0 525
-113 0 c-63 0 -117 -3 -120 -7z"/>
<path d="M8022 698 c4 -421 6 -437 68 -531 65 -98 169 -147 325 -154 115 -6
214 13 281 52 67 39 129 117 156 193 22 65 23 76 23 442 l0 375 -117 3 -117 3
-3 -368 c-3 -339 -5 -371 -22 -406 -36 -73 -134 -112 -222 -88 -53 14 -87 41
-110 88 -17 34 -19 72 -24 403 l-5 365 -118 3 -118 3 3 -383z"/>
<path d="M9165 1068 c-14 -42 -57 -564 -70 -838 -3 -69 -8 -142 -10 -162 l-5
-38 114 0 114 0 6 73 c2 39 10 186 16 326 7 139 14 260 17 268 3 8 59 -108
123 -259 l117 -273 84 0 83 0 113 264 c112 262 119 278 127 270 2 -2 9 -112
15 -244 7 -132 14 -282 17 -332 l6 -93 114 0 114 0 -5 68 c-3 37 -12 177 -20
312 -16 248 -52 648 -61 662 -3 4 -52 8 -110 8 l-105 0 -73 -152 c-40 -84
-101 -220 -136 -303 -35 -82 -67 -154 -70 -158 -4 -5 -35 58 -70 140 -35 81
-98 221 -141 311 l-78 162 -111 0 c-80 0 -112 -3 -115 -12z"/>
</g>
</svg>
